# Blender v2.92.0 OBJ File: 'shelf.blend'
# www.blender.org
mtllib shelf.mtl
o Cube
v 0.160000 0.010000 -0.300000
v 0.160000 -0.010000 -0.300000
v 0.160000 0.010000 0.300000
v 0.160000 -0.010000 0.300000
v -0.160000 0.010000 -0.300000
v -0.160000 -0.010000 -0.300000
v -0.160000 0.010000 0.300000
v -0.160000 -0.010000 0.300000
vt 0.625000 0.500000
vt 0.875000 0.500000
vt 0.875000 0.750000
vt 0.625000 0.750000
vt 0.375000 0.750000
vt 0.625000 1.000000
vt 0.375000 1.000000
vt 0.375000 0.000000
vt 0.625000 0.000000
vt 0.625000 0.250000
vt 0.375000 0.250000
vt 0.125000 0.500000
vt 0.375000 0.500000
vt 0.125000 0.750000
vn 0.0000 1.0000 0.0000
vn 0.0000 0.0000 1.0000
vn -1.0000 0.0000 0.0000
vn 0.0000 -1.0000 0.0000
vn 1.0000 0.0000 0.0000
vn 0.0000 0.0000 -1.0000
usemtl Material
s off
f 1/1/1 5/2/1 7/3/1 3/4/1
f 4/5/2 3/4/2 7/6/2 8/7/2
f 8/8/3 7/9/3 5/10/3 6/11/3
f 6/12/4 2/13/4 4/5/4 8/14/4
f 2/13/5 1/1/5 3/4/5 4/5/5
f 6/11/6 5/10/6 1/1/6 2/13/6
o Cube.001
v -0.159763 0.449064 0.300000
v -0.159763 -0.450936 0.300000
v -0.089763 0.449064 0.300000
v -0.089763 -0.450936 0.300000
v -0.159763 0.449064 0.330000
v -0.159763 -0.450936 0.330000
v -0.089763 0.449064 0.330000
v -0.089763 -0.450936 0.330000
v 0.089673 0.448358 0.299440
v 0.089673 -0.451642 0.299440
v 0.159673 0.448358 0.299440
v 0.159673 -0.451642 0.299440
v 0.089673 0.448358 0.329440
v 0.089673 -0.451642 0.329440
v 0.159673 0.448358 0.329440
v 0.159673 -0.451642 0.329440
v -0.159763 0.449064 -0.330083
v -0.159763 -0.450936 -0.330083
v -0.089763 0.449064 -0.330083
v -0.089763 -0.450936 -0.330083
v -0.159763 0.449064 -0.300083
v -0.159763 -0.450936 -0.300083
v -0.089763 0.449064 -0.300083
v -0.089763 -0.450936 -0.300083
v 0.089673 0.448723 -0.330643
v 0.089673 -0.451277 -0.330643
v 0.159673 0.448723 -0.330643
v 0.159673 -0.451277 -0.330643
v 0.089673 0.448723 -0.300643
v 0.089673 -0.451277 -0.300643
v 0.159673 0.448723 -0.300643
v 0.159673 -0.451277 -0.300643
vt 0.625000 0.500000
vt 0.875000 0.500000
vt 0.875000 0.750000
vt 0.625000 0.750000
vt 0.375000 0.750000
vt 0.625000 1.000000
vt 0.375000 1.000000
vt 0.375000 0.000000
vt 0.625000 0.000000
vt 0.625000 0.250000
vt 0.375000 0.250000
vt 0.125000 0.500000
vt 0.375000 0.500000
vt 0.125000 0.750000
vt 0.625000 0.500000
vt 0.875000 0.500000
vt 0.875000 0.750000
vt 0.625000 0.750000
vt 0.375000 0.750000
vt 0.625000 1.000000
vt 0.375000 1.000000
vt 0.375000 0.000000
vt 0.625000 0.000000
vt 0.625000 0.250000
vt 0.375000 0.250000
vt 0.125000 0.500000
vt 0.375000 0.500000
vt 0.125000 0.750000
vt 0.625000 0.500000
vt 0.875000 0.500000
vt 0.875000 0.750000
vt 0.625000 0.750000
vt 0.375000 0.750000
vt 0.625000 1.000000
vt 0.375000 1.000000
vt 0.375000 0.000000
vt 0.625000 0.000000
vt 0.625000 0.250000
vt 0.375000 0.250000
vt 0.125000 0.500000
vt 0.375000 0.500000
vt 0.125000 0.750000
vt 0.625000 0.500000
vt 0.875000 0.500000
vt 0.875000 0.750000
vt 0.625000 0.750000
vt 0.375000 0.750000
vt 0.625000 1.000000
vt 0.375000 1.000000
vt 0.375000 0.000000
vt 0.625000 0.000000
vt 0.625000 0.250000
vt 0.375000 0.250000
vt 0.125000 0.500000
vt 0.375000 0.500000
vt 0.125000 0.750000
vn 0.0000 1.0000 0.0000
vn 1.0000 0.0000 0.0000
vn 0.0000 0.0000 1.0000
vn 0.0000 -1.0000 0.0000
vn -0.0000 0.0000 -1.0000
vn -1.0000 0.0000 0.0000
usemtl Material
s off
f 9/15/7 13/16/7 15/17/7 11/18/7
f 12/19/8 11/18/8 15/20/8 16/21/8
f 16/22/9 15/23/9 13/24/9 14/25/9
f 14/26/10 10/27/10 12/19/10 16/28/10
f 10/27/11 9/15/11 11/18/11 12/19/11
f 14/25/12 13/24/12 9/15/12 10/27/12
f 17/29/7 21/30/7 23/31/7 19/32/7
f 20/33/8 19/32/8 23/34/8 24/35/8
f 24/36/9 23/37/9 21/38/9 22/39/9
f 22/40/10 18/41/10 20/33/10 24/42/10
f 18/41/11 17/29/11 19/32/11 20/33/11
f 22/39/12 21/38/12 17/29/12 18/41/12
f 25/43/7 29/44/7 31/45/7 27/46/7
f 28/47/8 27/46/8 31/48/8 32/49/8
f 32/50/9 31/51/9 29/52/9 30/53/9
f 30/54/10 26/55/10 28/47/10 32/56/10
f 26/55/11 25/43/11 27/46/11 28/47/11
f 30/53/12 29/52/12 25/43/12 26/55/12
f 33/57/7 37/58/7 39/59/7 35/60/7
f 36/61/8 35/60/8 39/62/8 40/63/8
f 40/64/9 39/65/9 37/66/9 38/67/9
f 38/68/10 34/69/10 36/61/10 40/70/10
f 34/69/11 33/57/11 35/60/11 36/61/11
f 38/67/12 37/66/12 33/57/12 34/69/12
o Cube.002
v 0.160000 0.438736 -0.300000
v 0.160000 0.418736 -0.300000
v 0.160000 0.438736 0.300000
v 0.160000 0.418736 0.300000
v -0.160000 0.438736 -0.300000
v -0.160000 0.418736 -0.300000
v -0.160000 0.438736 0.300000
v -0.160000 0.418736 0.300000
vt 0.625000 0.500000
vt 0.875000 0.500000
vt 0.875000 0.750000
vt 0.625000 0.750000
vt 0.375000 0.750000
vt 0.625000 1.000000
vt 0.375000 1.000000
vt 0.375000 0.000000
vt 0.625000 0.000000
vt 0.625000 0.250000
vt 0.375000 0.250000
vt 0.125000 0.500000
vt 0.375000 0.500000
vt 0.125000 0.750000
vn 0.0000 1.0000 0.0000
vn 0.0000 0.0000 1.0000
vn -1.0000 0.0000 0.0000
vn 0.0000 -1.0000 0.0000
vn 1.0000 0.0000 0.0000
vn 0.0000 0.0000 -1.0000
usemtl Material
s off
f 41/71/13 45/72/13 47/73/13 43/74/13
f 44/75/14 43/74/14 47/76/14 48/77/14
f 48/78/15 47/79/15 45/80/15 46/81/15
f 46/82/16 42/83/16 44/75/16 48/84/16
f 42/83/17 41/71/17 43/74/17 44/75/17
f 46/81/18 45/80/18 41/71/18 42/83/18
