# Blender v2.92.0 OBJ File: ''
# www.blender.org
mtllib bed.mtl
o Cube
v 1.000000 1.000000 -1.000000
v 1.000000 -1.000000 -1.000000
v 1.000000 1.000000 1.000000
v 1.000000 -1.000000 1.000000
v -1.000000 1.000000 -1.000000
v -1.000000 -1.000000 -1.000000
v -1.000000 1.000000 1.000000
v -1.000000 -1.000000 1.000000
vt 0.625000 0.500000
vt 0.875000 0.500000
vt 0.875000 0.750000
vt 0.625000 0.750000
vt 0.375000 0.750000
vt 0.625000 1.000000
vt 0.375000 1.000000
vt 0.375000 0.000000
vt 0.625000 0.000000
vt 0.625000 0.250000
vt 0.375000 0.250000
vt 0.125000 0.500000
vt 0.375000 0.500000
vt 0.125000 0.750000
vn 0.0000 1.0000 0.0000
vn 0.0000 0.0000 1.0000
vn -1.0000 0.0000 0.0000
vn 0.0000 -1.0000 0.0000
vn 1.0000 0.0000 0.0000
vn 0.0000 0.0000 -1.0000
usemtl Material
s off
f 1/1/1 5/2/1 7/3/1 3/4/1
f 4/5/2 3/4/2 7/6/2 8/7/2
f 8/8/3 7/9/3 5/10/3 6/11/3
f 6/12/4 2/13/4 4/5/4 8/14/4
f 2/13/5 1/1/5 3/4/5 4/5/5
f 6/11/6 5/10/6 1/1/6 2/13/6
o obj_0
v 61.000000 12.000000 -56.500999
v 61.000000 20.142000 -56.500999
v 61.000000 12.000000 -7.000000
v 61.000000 20.142000 -7.000000
v -27.000000 12.000000 -56.500999
v -27.000000 17.500000 -8.425300
v -27.000000 20.142000 -56.500999
v -27.000000 20.142000 -8.425300
v -27.000000 17.500000 -7.291400
v -27.009001 17.500000 -7.292000
v -26.614000 43.000000 -57.032001
v -27.009001 43.000000 -7.292000
v -22.990999 43.000000 -56.779999
v 53.500000 12.000000 -10.000000
v 53.500000 0.000000 -10.000000
v 56.500000 0.000000 -10.000000
v 56.500000 12.000000 -10.000000
v -23.386000 20.142000 -7.040000
v -22.993200 20.142000 -56.500999
v -26.618200 20.142000 -56.500999
v -23.386000 43.000000 -7.040000
v -27.000000 20.142000 -7.291400
v -22.990999 17.500000 -56.779999
v -26.614000 17.500000 -57.032001
v -18.000000 12.000000 -10.000000
v -18.000000 0.000000 -10.000000
v -18.000000 0.000000 -14.000000
v -18.000000 12.000000 -14.000000
v 56.500000 12.000000 -14.000000
v 56.500000 0.000000 -14.000000
v 53.500000 0.000000 -14.000000
v 53.500000 12.000000 -14.000000
v 56.500000 12.000000 -49.000000
v 56.500000 0.000000 -49.000000
v 56.500000 0.000000 -53.000000
v 56.500000 12.000000 -53.000000
v 53.500000 12.000000 -53.000000
v 53.500000 0.000000 -53.000000
v 53.500000 0.000000 -49.000000
v 53.500000 12.000000 -49.000000
v -21.000000 12.000000 -14.000000
v -21.000000 0.000000 -14.000000
v -21.000000 0.000000 -10.000000
v -21.000000 12.000000 -10.000000
v -27.000000 20.142000 -7.000000
v -27.000000 12.000000 -7.000000
v -17.500000 12.000000 -50.000000
v -17.500000 0.000000 -50.000000
v -17.500000 0.000000 -54.000000
v -17.500000 12.000000 -54.000000
v -20.500000 0.000000 -54.000000
v -20.500000 0.000000 -50.000000
v -22.993200 17.500000 -56.500999
v -26.618200 17.500000 -56.500999
v -20.500000 12.000000 -54.000000
v -20.500000 12.000000 -50.000000
vn 0.5773 -0.5773 -0.5773
vn 0.5773 0.5773 -0.5773
vn 0.5773 -0.5773 0.5773
vn 0.5773 0.5773 0.5773
vn -0.5773 -0.5773 -0.5773
vn -1.0000 -0.0013 -0.0020
vn -0.5773 0.5773 -0.5773
vn -1.0000 0.0013 -0.0060
vn -0.9116 -0.2846 0.2966
vn -0.5968 -0.5805 0.5539
vn -0.5561 0.5742 -0.6009
vn -0.5975 0.5806 0.5530
vn 0.5975 0.5806 -0.5530
vn -0.3015 -0.9045 0.3015
vn -0.5773 -0.5773 0.5773
vn 0.3015 -0.9045 0.3015
vn 0.2791 0.9116 0.3016
vn 0.9060 0.3035 -0.2948
vn -0.9030 0.2994 -0.3081
vn 0.5561 0.5742 0.6009
vn -0.3574 0.2841 0.8897
vn 0.5975 -0.5806 -0.5530
vn -0.5561 -0.5742 -0.6009
vn 0.3015 -0.9045 -0.3015
vn -0.3015 -0.9045 -0.3015
vn -0.5773 0.5773 0.5773
vn 0.3020 -0.3035 -0.9037
vn -0.3010 -0.2995 -0.9054
usemtl color_14541540
s 1
f 9//7 10//8 11//9
f 12//10 11//9 10//8
f 13//11 14//12 15//13
f 16//14 15//13 14//12
f 17//15 18//16 14//12
f 19//17 20//18 21//19
f 22//20 23//21 24//9
f 22//20 24//9 25//22
f 26//23 12//10 27//24
f 10//8 27//24 12//10
f 16//14 28//25 15//13
f 29//26 30//27 26//23
f 21//19 31//28 19//17
f 32//29 19//17 31//28
f 33//22 34//9 35//7
f 33//22 35//7 36//30
f 37//30 38//7 39//11
f 37//30 39//11 40//31
f 25//22 24//9 38//7
f 25//22 38//7 37//30
f 26//23 27//24 29//26
f 21//19 29//26 27//24
f 41//22 42//9 43//7
f 41//22 43//7 44//30
f 40//31 39//11 23//21
f 40//31 23//21 22//20
f 45//31 46//11 47//21
f 45//31 47//21 48//20
f 16//14 19//17 28//25
f 24//9 23//21 39//11
f 24//9 39//11 38//7
f 49//31 50//11 51//21
f 49//31 51//21 52//20
f 29//26 21//19 20//18
f 50//11 49//31 36//30
f 50//11 36//30 35//7
f 48//20 47//21 42//9
f 48//20 42//9 41//22
f 17//15 30//27 18//16
f 20//18 18//16 30//27
f 20//18 30//27 29//26
f 53//32 12//10 26//23
f 53//32 26//23 30//27
f 54//21 13//11 49//31
f 54//21 49//31 52//20
f 14//12 18//16 16//14
f 18//16 20//18 16//14
f 19//17 16//14 20//18
f 17//15 14//12 54//21
f 13//11 54//21 14//12
f 30//27 17//15 53//32
f 54//21 53//32 17//15
f 44//30 43//7 46//11
f 44//30 46//11 45//31
f 55//22 56//9 57//7
f 55//22 57//7 58//30
f 42//9 47//21 46//11
f 42//9 46//11 43//7
f 59//11 57//7 60//21
f 56//9 60//21 57//7
f 11//9 25//22 37//30
f 11//9 37//30 41//22
f 44//30 9//7 41//22
f 11//9 41//22 9//7
f 61//33 31//28 27//24
f 21//19 27//24 31//28
f 34//9 51//21 50//11
f 34//9 50//11 35//7
f 32//29 62//34 28//25
f 32//29 28//25 19//17
f 33//22 54//21 52//20
f 33//22 52//20 51//21
f 33//22 51//21 34//9
f 63//31 59//11 60//21
f 63//31 60//21 64//20
f 9//7 45//31 58//30
f 36//30 55//22 48//20
f 48//20 40//31 36//30
f 33//22 36//30 40//31
f 40//31 22//20 33//22
f 22//20 11//9 33//22
f 56//9 55//22 64//20
f 56//9 64//20 60//21
f 27//24 10//8 61//33
f 9//7 13//11 61//33
f 62//34 61//33 13//11
f 9//7 58//30 13//11
f 64//20 13//11 63//31
f 49//31 13//11 64//20
f 36//30 49//31 64//20
f 36//30 64//20 55//22
f 9//7 61//33 10//8
f 13//11 15//13 62//34
f 28//25 62//34 15//13
f 63//31 58//30 57//7
f 63//31 57//7 59//11
f 54//21 33//22 11//9
f 11//9 22//20 25//22
f 63//31 13//11 58//30
f 37//30 40//31 48//20
f 37//30 48//20 41//22
f 11//9 12//10 54//21
f 53//32 54//21 12//10
f 44//30 45//31 9//7
f 62//34 32//29 31//28
f 62//34 31//28 61//33
f 45//31 48//20 55//22
f 55//22 58//30 45//31
